# xmcd
#
# Track frame offsets:
#	150
#	12847
#	24680
#	49185
#	58245
#	78912
#	92257
#	101412
#	117730
#	135315
#	146867
#	165195
#	179845
#	190152
#	212625
#	221487
#	233177
#	240087
#	249712
#	262437
#
# Disc length: 3667 seconds
#
# Revision: 0
# Processed by: cddbd v1.4PL0 Copyright (c) Steve Scherf et al.
# Submitted via: EasyCDDAExtractor 4.6.9.1
#
DISCID=1c0e5114
DTITLE=Various Artist - Aunt Maudie's Back: Cincinnati Bluegrass Live At The Carnegie
DTITLE=Theatre
DYEAR=1999
DGENRE=Bluegrass
TTITLE0=Ohio Valley Rounders w/Mr. Spoons - Dueling Banjos
TTITLE1=Muddy River Band - Roll On, Muddy River
TTITLE2=Muddy River Band - With Body And Soul
TTITLE3=Katie Laur Band - Sugar In The Gourd
TTITLE4=Katie Laur Band - Good Time Girl
TTITLE5=Maudie's Boys - Little Maggie
TTITLE6=Coal Train - You're The Girl Of My Dreams
TTITLE7=Vernon McIntyre And Appalachian Grass - Uncloudy Day
TTITLE8=Pinson And Farley - Nashville Blues
TTITLE9=Bluegrass Flyers - Redwood Hill
TTITLE10=Bluegrass Flyers - Hickory Wind
TTITLE11=Vernon McIntyre And Appalachian Grass - Sleepy-Eyed John
TTITLE12=Vernon McIntyre And Appalachian Grass - Dear Old Dixie
TTITLE13=Ohio Valley Rounders - John Henry
TTITLE14=Ohio Valley Rounders - Golden Slippers
TTITLE15=Maudie's Boys - The Old Home Place
TTITLE16=Coal Train - Kentucky Mandolin
TTITLE17=Coal Train - My Window Faces The South
TTITLE18=Pinson And Farley - Gotta Travel On
TTITLE19=Pinson And Farley - Wipeout
EXTD=
EXTT0=
EXTT1=
EXTT2=
EXTT3=
EXTT4=
EXTT5=
EXTT6=
EXTT7=
EXTT8=[Inst]
EXTT9=
EXTT10=
EXTT11=
EXTT12=
EXTT13=
EXTT14=
EXTT15=
EXTT16=[Inst]
EXTT17=
EXTT18=
EXTT19=[Inst]
PLAYORDER=
